
      <svg data-logo="logo" xmlns="http://www.w3.org/2000/svg" viewBox="0 0 234 65">
        <g id="logogram" transform="translate(0, 12) rotate(0) "><path d="M0.452637 20.81C0.452637 9.76427 9.40694 0.809967 20.4526 0.809967H46.7026C57.7484 0.809967 66.7026 9.76427 66.7026 20.81V40.81H20.4526C9.40694 40.81 0.452637 31.8557 0.452637 20.81Z" fill="#568df8"/><path d="M46.7026 8.30997H20.4526C13.5491 8.30997 7.95264 13.9064 7.95264 20.81C7.95264 27.7135 13.5491 33.31 20.4526 33.31H46.7026C53.6062 33.31 59.2026 27.7135 59.2026 20.81C59.2026 13.9064 53.6062 8.30997 46.7026 8.30997Z" fill="#a8adb4"/><path d="M20.4526 27.06C23.9044 27.06 26.7026 24.2617 26.7026 20.81C26.7026 17.3582 23.9044 14.56 20.4526 14.56C17.0009 14.56 14.2026 17.3582 14.2026 20.81C14.2026 24.2617 17.0009 27.06 20.4526 27.06Z" fill="black"/><path d="M17.9526 19.56C18.643 19.56 19.2026 19.0003 19.2026 18.31C19.2026 17.6196 18.643 17.06 17.9526 17.06C17.2623 17.06 16.7026 17.6196 16.7026 18.31C16.7026 19.0003 17.2623 19.56 17.9526 19.56Z" fill="white"/><path d="M47.9526 27.06C51.4044 27.06 54.2026 24.2617 54.2026 20.81C54.2026 17.3582 51.4044 14.56 47.9526 14.56C44.5009 14.56 41.7026 17.3582 41.7026 20.81C41.7026 24.2617 44.5009 27.06 47.9526 27.06Z" fill="black"/><path d="M45.4526 19.56C46.143 19.56 46.7026 19.0003 46.7026 18.31C46.7026 17.6196 46.143 17.06 45.4526 17.06C44.7623 17.06 44.2026 17.6196 44.2026 18.31C44.2026 19.0003 44.7623 19.56 45.4526 19.56Z" fill="white"/></g>
        <g id="logotype" transform="translate(69, 7)"><path fill="#568df8" d="M32.21 46L7.04 46L7.04 17.91Q7.04 15.53 6.37 14.07Q5.71 12.61 3.33 12.61L3.33 12.61L2.79 12.61L2.79 11.02L9.15 11.02Q11.01 11.02 12.04 11.66Q13.08 12.29 13.50 13.78Q13.92 15.26 13.92 17.91L13.92 17.91L13.92 43.62L32.21 43.62L32.21 46ZM44.03 46.53L44.03 46.53Q40.74 46.53 38.54 45.52Q36.34 44.52 35.28 42.34Q34.22 40.17 34.22 36.78L34.22 36.78L34.22 27.98Q34.22 25.59 33.56 24.14Q32.90 22.68 30.51 22.68L30.51 22.68L29.98 22.68L29.98 21.09L36.34 21.09Q38.20 21.09 39.23 21.73Q40.27 22.36 40.69 23.85Q41.11 25.33 41.11 27.98L41.11 27.98L41.11 36.83Q41.11 39.59 41.64 41.18Q42.17 42.77 43.18 43.46Q44.19 44.15 45.62 44.15L45.62 44.15Q46.89 44.15 47.84 43.56Q48.80 42.98 49.44 42.16Q50.07 41.34 50.39 40.70L50.39 40.70L50.39 21.09L57.28 21.09L57.28 46L52.77 46L50.92 43.62L50.65 43.62Q49.65 44.73 48.00 45.63Q46.36 46.53 44.03 46.53ZM73.87 46.53L73.87 46.53Q69.63 46.53 66.79 44.75Q63.96 42.98 62.55 40.01Q61.15 37.04 61.15 33.55L61.15 33.55Q61.15 29.99 62.55 27.05Q63.96 24.11 66.79 22.34Q69.63 20.56 73.87 20.56L73.87 20.56Q76.89 20.56 78.98 20.98Q81.08 21.41 82.08 22.41L82.08 22.41Q83.09 23.42 83.25 25.12Q83.41 26.81 83.41 29.84L83.41 29.84L81.82 29.84Q81.61 26.44 79.72 24.69Q77.84 22.95 74.66 22.95L74.66 22.95Q72.75 22.95 71.32 24.08Q69.89 25.22 69.10 27.58Q68.30 29.94 68.30 33.55L68.30 33.55Q68.30 37.04 69.05 39.40Q69.79 41.76 71.24 42.95Q72.70 44.15 74.93 44.15L74.93 44.15Q77.68 44.15 79.41 42.87Q81.13 41.60 82.51 39.75L82.51 39.75L84.15 40.97Q83.41 42.13 82.16 43.43Q80.92 44.73 78.93 45.63Q76.94 46.53 73.87 46.53ZM95.39 46L88.50 46L88.50 27.98Q88.50 25.59 87.83 24.14Q87.17 22.68 84.79 22.68L84.79 22.68L84.26 22.68L84.26 21.09L90.62 21.09Q92.47 21.09 93.50 21.73Q94.54 22.36 94.96 23.85Q95.39 25.33 95.39 27.98L95.39 27.98L95.39 46ZM91.94 18.23L91.94 18.23Q89.93 18.23 88.95 17.01Q87.97 15.79 87.97 14.20L87.97 14.20Q87.97 12.82 88.81 12.03Q89.66 11.23 90.88 11.23L90.88 11.23Q92.90 11.23 93.88 12.45Q94.86 13.67 94.86 15.26L94.86 15.26Q94.86 16.64 94.01 17.43Q93.16 18.23 91.94 18.23ZM110.33 46.53L110.33 46.53Q106.62 46.53 104.16 44.81Q101.69 43.09 100.45 40.12Q99.20 37.15 99.20 33.55L99.20 33.55Q99.20 29.89 100.45 26.95Q101.69 24.00 104.24 22.28Q106.78 20.56 110.60 20.56L110.60 20.56Q112.40 20.56 113.80 21.06Q115.21 21.57 116.16 22.15L116.16 22.15L116.16 17.91Q116.16 15.53 115.50 14.07Q114.84 12.61 112.45 12.61L112.45 12.61L111.92 12.61L111.92 11.02L118.28 11.02Q120.14 11.02 121.17 11.66Q122.20 12.29 122.63 13.78Q123.05 15.26 123.05 17.91L123.05 17.91L123.05 46L118.55 46L116.69 43.62L116.43 43.62Q115.74 44.67 114.17 45.60Q112.61 46.53 110.33 46.53ZM111.39 44.15L111.39 44.15Q112.66 44.15 113.62 43.56Q114.57 42.98 115.21 42.16Q115.84 41.34 116.16 40.70L116.16 40.70L116.16 24.54Q115.42 23.95 114.25 23.45Q113.09 22.95 111.66 22.95L111.66 22.95Q109.70 22.95 108.53 24.32Q107.36 25.70 106.86 28.09Q106.36 30.47 106.36 33.55L106.36 33.55Q106.36 36.57 106.83 38.98Q107.31 41.39 108.42 42.77Q109.54 44.15 111.39 44.15ZM135.30 46L128.41 46L128.41 17.91Q128.41 15.53 127.74 14.07Q127.08 12.61 124.70 12.61L124.70 12.61L124.17 12.61L124.17 11.02L130.53 11.02Q132.38 11.02 133.41 11.66Q134.45 12.29 134.87 13.78Q135.30 15.26 135.30 17.91L135.30 17.91L135.30 46ZM144.46 56.60L142.34 56.60L142.34 54.74Q145.10 54.74 146.96 53.69Q148.81 52.63 149.98 49.60L149.98 49.60L151.09 46.74L141.55 25.86Q140.70 23.90 139.46 22.87Q138.21 21.83 136.62 21.62L136.62 21.62L136.62 20.56L141.28 20.56Q143.67 20.56 145.47 21.70Q147.27 22.84 148.17 24.80L148.17 24.80L154.27 38.16L160.74 21.09L163.54 21.09L152.84 49.45Q151.78 52.31 150.53 53.87Q149.29 55.43 147.80 56.02Q146.32 56.60 144.46 56.60L144.46 56.60Z"/></g>
        
      </svg>
    